<?xml version="1.0" standalone="no"?><!DOCTYPE svg PUBLIC "-//W3C//DTD SVG 1.1//EN" "http://www.w3.org/Graphics/SVG/1.1/DTD/svg11.dtd"><svg t="1502681669086" class="icon" style="" viewBox="0 0 1024 1024" version="1.1" xmlns="http://www.w3.org/2000/svg" p-id="1004" xmlns:xlink="http://www.w3.org/1999/xlink" width="200" height="200"><defs><style type="text/css"></style></defs><path d="M686.592 683.968 305.664 683.968c-18.88 0-34.304 15.424-34.304 34.304 0 19.008 15.424 34.368 34.304 34.368l380.864 0c18.944 0 34.304-15.36 34.304-34.368C720.896 699.392 705.472 683.968 686.592 683.968z" p-id="1005" fill="#cdcdcd"></path><path d="M397.568 493.952 303.872 493.952c-17.92 0-32.512 14.656-32.512 32.64s14.592 32.64 32.512 32.64l93.696 0c17.92 0 32.576-14.656 32.576-32.64S415.488 493.952 397.568 493.952z" p-id="1006" fill="#cdcdcd"></path><path d="M634.176 268.16c-11.392-2.368-23.04-3.584-34.624-3.584-79.872 0-149.696 57.024-165.888 135.552-19.008 91.84 40.064 181.952 131.648 200.96 30.464 6.4 62.016 4.032 91.328-6.656l36.8 56.256c4.544 6.848 11.52 11.648 19.392 13.184l6.4 0.704c6.016 0 11.904-1.728 17.024-5.12 14.144-9.28 18.112-28.416 8.896-42.816l-35.136-53.504c28.672-24.512 48.32-57.408 55.872-94.016C784.832 377.344 725.824 287.168 634.176 268.16zM705.344 456.64c-11.776 57.216-69.632 96-127.488 84.032-58.24-12.096-95.744-69.504-83.648-127.936C504.448 362.688 548.8 326.4 599.616 326.4c7.296 0 14.656 0.768 21.952 2.24C679.808 340.8 717.376 398.144 705.344 456.64z" p-id="1007" fill="#cdcdcd"></path><path d="M395.84 317.248 305.664 317.248c-18.88 0-34.304 15.424-34.304 34.368 0 18.88 15.424 34.304 34.304 34.304l90.112 0c18.944 0 34.304-15.36 34.304-34.304C430.144 332.672 414.72 317.248 395.84 317.248z" p-id="1008" fill="#cdcdcd"></path></svg>